{
  "accessors": [
    {
      "name": "Heart_1_0_positions",
      "componentType": 5126,
      "count": 5974,
      "min": [
        -10.625,
        -4.570099830627441,
        0.046300001442432404
      ],
      "max": [
        10.625,
        4.571199893951416,
        19.961200714111328
      ],
      "type": "VEC3",
      "bufferView": 0,
      "byteOffset": 0
    },
    {
      "name": "Heart_1_0_normals",
      "componentType": 5126,
      "count": 5974,
      "min": [
        -0.9998361468315125,
        -0.999825119972229,
        -1
      ],
      "max": [
        0.9998379945755005,
        0.9998571872711182,
        1
      ],
      "type": "VEC3",
      "bufferView": 1,
      "byteOffset": 0
    },
    {
      "name": "Heart_1_0_texcoords",
      "componentType": 5126,
      "count": 5974,
      "min": [
        0,
        0.14659999310970306
      ],
      "max": [
        1,
        1
      ],
      "type": "VEC2",
      "bufferView": 2,
      "byteOffset": 0
    },
    {
      "name": "Heart_1_0_indices",
      "componentType": 5123,
      "count": 33792,
      "min": [
        0
      ],
      "max": [
        5973
      ],
      "type": "SCALAR",
      "bufferView": 3,
      "byteOffset": 0
    }
  ],
  "asset": {
    "generator": "obj2gltf",
    "version": "2.0"
  },
  "buffers": [
    {
      "name": "heart_2",
      "byteLength": 258752,
      "uri": "data:application/octet-stream;base64,"
    }
  ],
  "bufferViews": [
    {
      "name": "bufferView_0",
      "buffer": 0,
      "byteLength": 71688,
      "byteOffset": 0,
      "byteStride": 12,
      "target": 34962
    },
    {
      "name": "bufferView_1",
      "buffer": 0,
      "byteLength": 71688,
      "byteOffset": 71688,
      "byteStride": 12,
      "target": 34962
    },
    {
      "name": "bufferView_2",
      "buffer": 0,
      "byteLength": 47792,
      "byteOffset": 143376,
      "byteStride": 8,
      "target": 34962
    },
    {
      "name": "bufferView_3",
      "buffer": 0,
      "byteLength": 67584,
      "byteOffset": 191168,
      "target": 34963
    }
  ],
  "materials": [
    {
      "name": "Heart",
      "pbrMetallicRoughness": {
        "baseColorFactor": [
          0.5,
          0.5,
          0.5,
          1
        ],
        "metallicFactor": 0,
        "roughnessFactor": 1
      },
      "emissiveFactor": [
        0,
        0,
        0
      ],
      "alphaMode": "OPAQUE",
      "doubleSided": false
    }
  ],
  "meshes": [
    {
      "name": "Heart_1",
      "primitives": [
        {
          "attributes": {
            "POSITION": 0,
            "NORMAL": 1,
            "TEXCOORD_0": 2
          },
          "indices": 3,
          "material": 0,
          "mode": 4
        }
      ]
    }
  ],
  "nodes": [
    {
      "name": "Heart",
      "mesh": 0
    }
  ],
  "scene": 0,
  "scenes": [
    {
      "nodes": [
        0
      ]
    }
  ]
}
